HIERARCHY
ROOT Hips
{
 OFFSET 0.000000 0.000000 0.000000
 CHANNELS 6 Xposition Yposition Zposition Yrotation Xrotation Zrotation
 JOINT Chest
 {
  OFFSET 0.000000 9.585900 0.002600
  CHANNELS 3 Yrotation Xrotation Zrotation
  JOINT Chest2
  {
   OFFSET 0.000000 9.601200 -0.005300
   CHANNELS 3 Yrotation Xrotation Zrotation
   JOINT Chest3
   {
    OFFSET 0.000000 9.561800 0.000000
    CHANNELS 3 Yrotation Xrotation Zrotation
    JOINT Chest4
    {
     OFFSET 0.000000 9.552100 0.000000
     CHANNELS 3 Yrotation Xrotation Zrotation
     JOINT Neck
     {
      OFFSET 0.000000 14.453000 0.000000
      CHANNELS 3 Yrotation Xrotation Zrotation
      JOINT Head
      {
       OFFSET 0.000000 8.936500 -0.011300
       CHANNELS 3 Yrotation Xrotation Zrotation
       End Site
       {
        OFFSET 0.000000 17.073600 -0.006000
       }
      }
     }
     JOINT RightCollar
     {
      OFFSET -2.921100 9.558500 0.000000
      CHANNELS 3 Yrotation Xrotation Zrotation
      JOINT RightShoulder
      {
       OFFSET -13.519700 0.000000 0.000000
       CHANNELS 3 Yrotation Xrotation Zrotation
       JOINT RightElbow
       {
        OFFSET 0.000000 -29.696600 0.000000
        CHANNELS 3 Yrotation Xrotation Zrotation
        JOINT RightWrist
        {
         OFFSET 0.000000 -24.004700 0.000000
         CHANNELS 3 Yrotation Xrotation Zrotation
         End Site
         {
          OFFSET 0.000000 -17.728500 0.000000
         }
        }
       }
      }
     }
     JOINT LeftCollar
     {
      OFFSET 2.921100 9.558500 0.000000
      CHANNELS 3 Yrotation Xrotation Zrotation
      JOINT LeftShoulder
      {
       OFFSET 13.519700 0.000000 0.000000
       CHANNELS 3 Yrotation Xrotation Zrotation
       JOINT LeftElbow
       {
        OFFSET 0.000000 -29.696600 0.000000
        CHANNELS 3 Yrotation Xrotation Zrotation
        JOINT LeftWrist
        {
         OFFSET 0.000000 -24.004700 0.000000
         CHANNELS 3 Yrotation Xrotation Zrotation
         End Site
         {
          OFFSET 0.000000 -17.728500 0.000000
         }
        }
       }
      }
     }
    }
   }
  }
 }
 JOINT RightHip
 {
  OFFSET -7.771700 -0.012900 -0.001300
  CHANNELS 3 Yrotation Xrotation Zrotation
  JOINT RightKnee
  {
   OFFSET 0.000000 -40.869800 0.001200
   CHANNELS 3 Yrotation Xrotation Zrotation
   JOINT RightAnkle
   {
    OFFSET 0.000000 -39.717900 0.002100
    CHANNELS 3 Yrotation Xrotation Zrotation
    JOINT RightToe
    {
     OFFSET 0.000000 -4.965400 11.033500
     CHANNELS 3 Yrotation Xrotation Zrotation
     End Site
     {
      OFFSET 0.000000 -1.423100 5.872300
     }
    }
   }
  }
 }
 JOINT LeftHip
 {
  OFFSET 7.771700 -0.012900 -0.001300
  CHANNELS 3 Yrotation Xrotation Zrotation
  JOINT LeftKnee
  {
   OFFSET 0.000000 -40.869800 0.001200
   CHANNELS 3 Yrotation Xrotation Zrotation
   JOINT LeftAnkle
   {
    OFFSET 0.000000 -39.717900 0.002100
    CHANNELS 3 Yrotation Xrotation Zrotation
    JOINT LeftToe
    {
     OFFSET 0.000000 -4.965400 11.033500
     CHANNELS 3 Yrotation Xrotation Zrotation
     End Site
     {
      OFFSET 0.000000 -1.423100 5.872300
     }
    }
   }
  }
 }
}
MOTION
Frames: 13
Frame Time: 0.008333
-37.852691 56.452491 -7.494386 179.038396 -12.953022 -0.571277 -1.065169 17.416224 0.658707 -0.058040 1.834281 0.108819 -0.120681 3.165889 0.247254 -0.466610 15.411841 1.163550 0.363190 11.378830 1.704626 -0.007230 -13.694178 1.703304 3.628930 2.520740 -0.347193 3.395555 -17.527766 -10.707871 -99.227284 -66.962690 129.177098 -11.268987 -11.337175 -5.350699 -6.578526 -0.921858 -0.558067 -2.185799 -18.722213 9.750278 84.425967 -57.267232 -126.955754 4.419417 -20.025326 8.299687 -3.234253 -62.242964 14.857976 -28.534203 85.146263 -31.461134 -10.592568 -18.916264 9.656843 0.201060 0.137933 -0.356163 18.184382 -57.145265 -19.894555 70.339652 70.909540 71.401280 -6.376009 -14.888308 0.359638 0.152603 0.663902 0.044245
-37.854639 56.445040 -7.490922 179.022062 -13.009906 -0.547234 -1.038518 17.401474 0.600142 -0.051557 1.826558 0.104765 -0.113157 3.153439 0.239234 -0.434680 15.386942 1.130381 0.355797 11.273594 1.685818 -0.010745 -13.801929 1.686673 3.603450 2.460401 -0.318144 3.459686 -17.384829 -10.677432 -99.062995 -66.915851 129.137666 -11.276747 -11.370920 -5.332060 -6.565472 -0.941022 -0.516480 -2.205109 -18.614706 9.753897 84.430104 -57.269559 -126.950533 4.391430 -20.015443 8.339182 -3.150235 -62.194053 14.804713 -28.647962 85.163800 -31.583868 -10.687014 -19.007667 9.796276 0.206479 0.126191 -0.340249 18.207721 -57.087843 -19.914110 70.313398 70.899101 71.385960 -6.371281 -14.872686 0.354471 0.150611 0.661002 0.047434
-37.855094 56.437000 -7.484130 179.006195 -13.041173 -0.532384 -0.992492 17.308849 0.526509 -0.060211 1.870872 0.129780 -0.105496 3.140820 0.231439 -0.401778 15.361559 1.098326 0.349641 11.169200 1.662932 -0.012074 -13.908974 1.665462 3.574718 2.402819 -0.290021 3.525505 -17.241542 -10.641727 -98.874716 -66.867316 129.069493 -11.287000 -11.401554 -5.311039 -6.551751 -0.958279 -0.471447 -2.227950 -18.502728 9.755515 84.407574 -57.272405 -126.929119 4.353724 -20.011610 8.399091 -3.083366 -62.171632 14.768810 -28.816549 85.170495 -31.752007 -10.771600 -19.089051 9.919542 0.221779 0.113144 -0.318658 18.229352 -57.056218 -19.929526 70.283240 70.890911 71.361749 -6.363457 -14.874012 0.357587 0.145448 0.672302 0.048869
-37.860282 56.428058 -7.472464 179.057617 -13.035337 -0.506706 -1.031276 17.214410 0.440312 -0.060080 1.881292 0.135288 -0.097518 3.128303 0.223941 -0.367049 15.336160 1.067691 0.344509 11.065526 1.636761 -0.011572 -14.015462 1.640522 3.545658 2.346107 -0.263158 3.593309 -17.097409 -10.598594 -98.682213 -66.824725 128.986036 -11.300161 -11.423434 -5.288469 -6.535717 -0.974592 -0.422219 -2.254241 -18.389492 9.754607 84.375425 -57.271764 -126.900388 4.324477 -19.996520 8.449786 -3.042930 -62.183587 14.688612 -28.827964 85.187585 -31.779615 -10.869793 -19.166995 10.042740 0.253663 0.097159 -0.288170 18.247438 -57.047999 -20.020318 70.217430 70.881491 71.317776 -6.398880 -14.924240 0.334624 0.193470 0.742793 0.072193
-37.860508 56.421243 -7.468166 179.033088 -13.069518 -0.496520 -1.000600 17.213608 0.414734 -0.048290 1.839131 0.109443 -0.089800 3.116033 0.216830 -0.333169 15.311091 1.038604 0.340558 10.963553 1.606457 -0.008877 -14.120317 1.610946 3.519612 2.288749 -0.237588 3.664018 -16.952204 -10.553100 -98.492277 -66.793383 128.892081 -11.313559 -11.439968 -5.267621 -6.516345 -0.990342 -0.373605 -2.293861 -18.271497 9.760225 84.339245 -57.271388 -126.870342 4.290267 -19.992600 8.521903 -2.988985 -62.154195 14.666493 -28.942948 85.192525 -31.898954 -10.907982 -19.241275 10.142422 0.272332 0.079864 -0.261485 18.279583 -57.010214 -20.036032 70.193627 70.868344 71.307837 -6.384409 -14.934151 0.336883 0.177916 0.758069 0.067484
-37.861339 56.415430 -7.466563 179.011122 -13.113668 -0.488052 -0.973183 17.222334 0.390084 -0.045132 1.836043 0.108077 -0.074509 3.067524 0.186227 -0.302508 15.286508 1.010668 0.337955 10.863033 1.571806 -0.003756 -14.223757 1.576461 3.495923 2.229694 -0.212500 3.737170 -16.806746 -10.508141 -98.315314 -66.774644 128.797850 -11.326111 -11.454801 -5.251859 -6.494090 -1.007328 -0.325827 -2.354705 -18.140290 9.780655 84.324107 -57.271730 -126.858608 4.255831 -20.003820 8.617193 -2.945604 -62.111917 14.649698 -29.098641 85.197932 -32.059872 -10.945170 -19.314483 10.238887 0.290515 0.105014 -0.283821 18.297886 -56.964201 -20.032767 70.181939 70.862645 71.304420 -6.382852 -14.945188 0.336486 0.178872 0.768114 0.071563
-37.862780 56.409865 -7.464447 178.998182 -13.148330 -0.483604 -0.931588 17.142847 0.322368 -0.048140 1.860193 0.123742 -0.072502 3.074112 0.191123 -0.274366 15.261323 0.982950 0.336883 10.764332 1.533935 0.003757 -14.325451 1.538159 3.474768 2.169905 -0.187083 3.808266 -16.664508 -10.463020 -98.148920 -66.766421 128.705081 -11.332081 -11.467885 -5.241424 -6.469121 -1.024984 -0.275333 -2.385047 -18.031645 9.774451 84.264094 -57.266553 -126.805924 4.217044 -19.996756 8.696597 -2.919722 -62.075452 14.636925 -29.209736 85.200594 -32.173397 -10.981843 -19.387335 10.326514 0.273863 0.065252 -0.239714 18.301419 -56.930106 -20.020885 70.165314 70.863934 71.286165 -6.380047 -14.952798 0.342113 0.177179 0.779356 0.072924
-37.866311 56.405196 -7.464727 178.986660 -13.191855 -0.471952 -0.903143 17.110037 0.265741 -0.043489 1.850314 0.118627 -0.070289 3.079167 0.196770 -0.248303 15.234633 0.955111 0.337223 10.669852 1.492425 0.013550 -14.422914 1.495563 3.456676 2.112646 -0.162373 3.874356 -16.527816 -10.420731 -97.973272 -66.763969 128.603329 -11.327795 -11.480436 -5.240414 -6.442809 -1.041369 -0.223036 -2.419044 -17.924554 9.759937 84.218965 -57.252349 -126.772039 4.164549 -19.976945 8.791948 -2.894734 -62.029355 14.608571 -29.563614 85.194813 -32.528281 -10.976647 -19.458671 10.404880 0.282280 0.025033 -0.197901 18.329788 -56.881179 -20.035095 70.148991 70.865642 71.277422 -6.373583 -14.957517 0.351699 0.172118 0.783946 0.071568
-37.868984 56.400681 -7.464069 178.968847 -13.225108 -0.468193 -0.869572 17.082992 0.232235 -0.040087 1.842073 0.114681 -0.064695 3.065949 0.190254 -0.224320 15.206885 0.927667 0.338786 10.581089 1.446134 0.025712 -14.514547 1.447514 3.439649 2.060999 -0.138361 3.936856 -16.396839 -10.384211 -97.771819 -66.760856 128.479651 -11.316496 -11.490463 -5.250330 -6.415697 -1.055792 -0.172847 -2.451725 -17.820797 9.745083 84.145967 -57.267957 -126.725619 4.144803 -19.979776 8.845236 -2.882584 -61.992761 14.601578 -29.719836 85.193370 -32.686889 -10.987533 -19.514852 10.478347 0.284291 0.001581 -0.179554 18.379111 -56.843333 -20.059882 70.143213 70.856553 71.292574 -6.374429 -14.958247 0.361682 0.164970 0.784317 0.066585
-37.867827 56.397648 -7.467879 178.900025 -13.283142 -0.477656 -0.780435 17.079037 0.226399 -0.037002 1.833752 0.110970 -0.059638 3.052711 0.184068 -0.202591 15.178868 0.901577 0.342609 10.497087 1.393451 0.041836 -14.601332 1.392032 3.422300 2.015946 -0.116087 3.997615 -16.272247 -10.351565 -97.537812 -66.753949 128.325903 -11.307614 -11.495675 -5.261129 -6.387473 -1.067507 -0.125668 -2.455371 -17.737755 9.699565 84.031146 -57.283843 -126.656820 4.103935 -19.981979 8.969955 -2.861907 -61.932780 14.644929 -29.919404 85.189127 -32.886689 -10.980264 -19.563684 10.552297 0.262088 -0.023937 -0.173142 18.399187 -56.793370 -19.999177 70.143941 70.854593 71.291682 -6.328739 -14.911796 0.381625 0.120316 0.735532 0.047258
-37.870313 56.393669 -7.466131 178.882090 -13.303839 -0.478436 -0.752227 17.052912 0.208471 -0.038054 1.845135 0.117407 -0.057274 3.046124 0.181101 -0.183324 15.110282 0.854440 0.349377 10.416438 1.333924 0.062662 -14.684766 1.328449 3.406619 1.976236 -0.097035 4.052403 -16.154481 -10.320731 -97.269079 -66.738751 128.144466 -11.307204 -11.495014 -5.269021 -6.356397 -1.078458 -0.080159 -2.475753 -17.643935 9.669686 83.923738 -57.285621 -126.583323 4.068424 -19.997557 9.078179 -2.857419 -61.909694 14.651052 -29.986057 85.187438 -32.953595 -11.027200 -19.595428 10.623307 0.264660 -0.050942 -0.156885 18.442315 -56.768814 -20.012685 70.128755 70.853100 71.293991 -6.336663 -14.916351 0.383710 0.124326 0.739945 0.053242
-37.872506 56.390892 -7.467427 178.863442 -13.342084 -0.479765 -0.729351 17.075513 0.206450 -0.034249 1.825464 0.107489 -0.055265 3.039576 0.178292 -0.169714 15.043451 0.808680 0.357492 10.339391 1.268775 0.086170 -14.764549 1.258516 3.396432 1.940369 -0.081055 4.064729 -16.030797 -10.268506 -96.978493 -66.722041 127.984322 -11.311436 -11.490096 -5.277353 -6.319897 -1.089894 -0.037483 -2.518127 -17.530858 9.663716 83.851629 -57.268914 -126.554868 4.027803 -20.006303 9.142305 -2.889281 -61.856708 14.673886 -29.855323 85.188782 -32.829930 -11.063512 -19.639584 10.685988 0.245909 -0.066349 -0.151437 18.480802 -56.726657 -20.016769 70.107032 70.855785 71.296284 -6.348615 -14.912509 0.378736 0.134393 0.736169 0.062828
-37.873934 56.388028 -7.466243 178.848644 -13.364983 -0.485018 -0.703213 17.037855 0.185240 -0.032006 1.817791 0.103932 -0.051598 3.027280 0.172601 -0.159759 15.014669 0.788326 0.365809 10.267201 1.197780 0.111262 -14.839287 1.182284 3.393573 1.910093 -0.067591 4.116195 -15.925620 -10.253348 -96.649180 -66.678097 127.745993 -11.316211 -11.488411 -5.284934 -6.279915 -1.099034 0.000471 -2.558082 -17.419347 9.656283 83.734173 -57.208982 -126.538833 3.922547 -20.008878 9.256319 -2.922200 -61.825989 14.699745 -29.892898 85.184820 -32.869593 -11.075324 -19.663520 10.711848 0.210671 -0.085420 -0.132792 18.522218 -56.700957 -20.023690 70.099749 70.854157 71.305228 -6.359600 -14.915727 0.381234 0.134964 0.738213 0.069035
